<?xml version="1.0" standalone="no"?>
<!DOCTYPE svg PUBLIC "-//W3C//DTD SVG 20010904//EN"
 "http://www.w3.org/TR/2001/REC-SVG-20010904/DTD/svg10.dtd">
<svg version="1.0" xmlns="http://www.w3.org/2000/svg"
 width="210.000000pt" height="210.000000pt" viewBox="0 0 210.000000 210.000000"
 preserveAspectRatio="xMidYMid meet">
<metadata>
Created by potrace 1.14, written by Peter Selinger 2001-2017
</metadata>
<g transform="translate(0.000000,210.000000) scale(0.100000,-0.100000)"
fill="#000000" stroke="none">
<path d="M0 2085 c0 -19 19 -19 44 0 19 14 18 15 -12 15 -22 0 -32 -5 -32 -15z"/>
<path d="M1125 1972 c-16 -2 -36 -8 -42 -14 -9 -7 -13 -7 -13 0 0 6 -15 4 -40
-5 -22 -9 -37 -20 -34 -24 3 -5 -2 -9 -10 -9 -9 0 -33 -9 -55 -20 -21 -12 -51
-23 -65 -26 -14 -2 -37 -9 -51 -14 -14 -5 -25 -7 -25 -5 0 3 -9 -4 -20 -15
-11 -11 -24 -20 -28 -20 -8 0 -19 -25 -51 -110 -18 -49 -21 -172 -5 -177 6 -2
9 20 9 54 -1 58 20 143 36 143 5 0 9 -4 9 -10 0 -5 -4 -10 -9 -10 -4 0 -7 -11
-6 -25 2 -14 0 -23 -5 -20 -11 7 -7 -139 5 -147 6 -5 6 -8 -2 -8 -6 0 -10 -11
-9 -24 2 -14 -1 -23 -8 -20 -11 4 -27 -25 -41 -73 -3 -13 -9 -23 -13 -24 -4 0
-16 -3 -27 -5 -11 -2 -36 -4 -55 -3 -129 4 -173 -2 -214 -30 -36 -26 -84 -73
-87 -86 -5 -26 -13 -45 -18 -45 -3 0 -6 -21 -6 -47 1 -27 -2 -56 -7 -65 -5
-10 -4 -19 2 -23 6 -4 4 -15 -6 -30 -15 -24 -27 -69 -28 -112 -1 -13 -5 -23
-9 -23 -5 0 -5 -6 -1 -12 11 -17 12 -48 3 -48 -9 0 -6 -26 4 -36 4 -4 2 -13
-4 -21 -9 -10 -8 -13 0 -13 7 0 9 -4 6 -10 -3 -5 -1 -10 5 -10 6 0 8 -5 5 -10
-3 -6 -1 -10 6 -10 7 0 9 -3 6 -6 -4 -4 1 -21 10 -38 34 -67 35 -68 22 -60 -9
5 -11 1 -6 -15 3 -12 -1 -28 -10 -36 -8 -9 -10 -15 -3 -15 7 0 6 -5 -2 -14 -7
-8 -15 -12 -17 -10 -2 2 -9 -3 -15 -10 -6 -8 -27 -16 -47 -19 -20 -2 -43 -8
-49 -12 -9 -5 -11 -4 -6 3 11 17 -9 15 -24 -3 -10 -12 -10 -15 1 -15 9 0 10
-3 4 -8 -5 -4 -11 -13 -13 -21 -14 -65 -15 -74 -4 -67 7 4 12 3 12 -2 0 -5 19
-15 42 -22 24 -7 54 -20 68 -29 34 -24 106 -51 114 -44 3 4 6 0 6 -7 0 -7 3
-10 7 -7 3 4 12 2 20 -4 7 -6 13 -9 13 -6 0 3 16 -1 35 -9 19 -8 35 -12 35 -9
0 3 9 1 21 -5 11 -6 77 -13 147 -14 136 -3 164 -10 201 -51 13 -14 26 -23 29
-20 3 2 10 -2 16 -10 6 -8 26 -16 44 -17 19 -1 36 -6 38 -10 3 -5 10 -6 15 -2
5 3 33 -6 61 -21 46 -24 58 -26 122 -21 39 3 129 8 200 11 75 2 134 9 142 16
8 6 14 9 14 6 0 -3 19 2 43 12 58 25 80 34 93 36 14 3 54 42 53 51 0 3 6 15
15 27 26 37 60 90 75 119 8 15 19 25 24 21 6 -3 7 -1 3 5 -7 12 8 48 31 70 7
7 13 20 13 28 0 8 3 14 8 14 4 0 15 18 25 40 9 23 24 43 31 46 8 3 12 12 10
19 -3 7 0 16 5 20 6 3 9 11 6 16 -4 5 -2 9 4 9 5 0 8 9 6 20 -2 11 1 20 6 20
6 0 7 4 4 10 -3 5 -2 10 4 10 6 0 8 6 5 14 -3 7 2 20 10 29 8 8 17 21 18 28 2
8 25 35 51 62 l48 48 -31 30 c-16 17 -30 27 -30 23 0 -5 -7 2 -16 14 -8 12
-20 20 -25 17 -5 -4 -9 -1 -9 6 0 7 -3 10 -6 6 -14 -13 -62 51 -70 95 -5 22
23 88 38 88 6 0 8 3 5 6 -4 4 1 14 11 23 19 16 36 50 34 64 -1 4 3 7 9 7 5 0
8 4 4 9 -6 11 12 57 37 90 10 13 18 32 18 42 0 11 6 19 13 19 27 1 -45 49
-119 80 -78 32 -139 64 -159 85 -6 5 -17 36 -25 69 -7 32 -20 64 -27 71 -7 8
-13 18 -13 24 0 10 -46 60 -55 61 -3 0 -10 0 -16 0 -5 0 -8 4 -5 9 4 5 -7 15
-23 22 -16 7 -28 16 -26 19 2 3 -6 7 -18 7 -29 2 -49 7 -64 16 -6 4 -23 8 -37
9 -14 1 -26 6 -26 10 0 4 -3 7 -7 6 -5 -1 -28 5 -53 12 -25 8 -48 14 -52 16
-5 1 -9 2 -10 4 -4 2 -40 10 -60 12 -10 1 -18 7 -18 12 0 5 -2 7 -6 4 -3 -3
-19 -3 -37 1 -18 3 -45 5 -62 3z"/>
</g>
</svg>
